<svg width="24" height="24" viewBox="0 0 24 24" fill="none" xmlns="http://www.w3.org/2000/svg">
<rect y="19.9142" width="28.1628" height="5" rx="2" transform="rotate(-45 0 19.9142)" fill="#EDA626"/>
<path d="M19.7034 4.80085C18.6282 3.72751 16.887 3.72751 15.8118 4.80085L14.8376 5.78036L4.46763 16.1448L4.44559 16.167C4.44025 16.1723 4.44025 16.178 4.43457 16.178C4.42355 16.1946 4.40702 16.2109 4.39618 16.2274C4.39618 16.2329 4.39049 16.2329 4.39049 16.2385C4.37948 16.255 4.37414 16.266 4.36295 16.2825C4.35761 16.288 4.35761 16.2934 4.3521 16.2991C4.34659 16.3156 4.34108 16.3266 4.3354 16.3431C4.3354 16.3485 4.33006 16.3485 4.33006 16.3542L2.02928 23.2728C1.96179 23.4698 2.0131 23.688 2.16134 23.8341C2.2655 23.9369 2.406 23.9944 2.55218 23.9939C2.61192 23.9929 2.67115 23.9836 2.72831 23.9664L9.64167 21.6601C9.64701 21.6601 9.64701 21.6601 9.65269 21.6547C9.67008 21.6496 9.68678 21.6422 9.70211 21.6325C9.70641 21.632 9.7102 21.6301 9.7133 21.6272C9.72966 21.6162 9.75169 21.605 9.76822 21.594C9.78458 21.5831 9.80128 21.5666 9.81781 21.5556C9.82332 21.5499 9.82866 21.5499 9.82866 21.5446C9.83434 21.539 9.84536 21.5337 9.85087 21.5225L21.195 10.1784C22.2683 9.10317 22.2683 7.36196 21.195 6.2869L19.7034 4.80085ZM9.46554 20.3665L5.63463 16.5358L15.2229 6.94754L19.0538 10.7783L9.46554 20.3665ZM5.09504 17.554L8.44178 20.9006L3.41633 22.5738L5.09504 17.554ZM20.419 9.40775L19.8355 9.99676L16.0044 6.16569L16.5936 5.57685C17.2381 4.93291 18.2826 4.93291 18.9273 5.57685L20.4243 7.07391C21.064 7.72129 21.0616 8.76347 20.419 9.40775Z" fill="#1F213A"/>
</svg>
